<svg width="36" height="35" viewBox="0 0 36 35" fill="none" xmlns="http://www.w3.org/2000/svg">
<rect x="0.676453" width="34.8235" height="34.8235" rx="17.4118" fill="#8753A4"/>
<rect x="0.676453" width="34.8235" height="34.8235" rx="17.4118" fill="url(#paint0_linear_23_4586)"/>
<path d="M19.0648 9.20996C20.0011 9.21246 20.4763 9.21745 20.8866 9.2291L21.048 9.23493C21.2345 9.24159 21.4184 9.24991 21.6406 9.2599C22.5261 9.30151 23.1303 9.44133 23.6605 9.64691C24.2098 9.85831 24.6725 10.1446 25.1352 10.6065C25.5584 11.0226 25.8859 11.5259 26.0948 12.0813C26.3004 12.6115 26.4402 13.2157 26.4818 14.1021C26.4918 14.3235 26.5001 14.5074 26.5068 14.6947L26.5118 14.8561C26.5243 15.2656 26.5293 15.7409 26.5309 16.6772L26.5318 17.298V18.3883C26.5338 18.9954 26.5274 19.6025 26.5126 20.2094L26.5076 20.3708C26.501 20.5581 26.4926 20.742 26.4827 20.9634C26.441 21.8498 26.2996 22.4532 26.0948 22.9842C25.8865 23.54 25.559 24.0434 25.1352 24.459C24.7191 24.882 24.2159 25.2095 23.6605 25.4186C23.1303 25.6242 22.5261 25.764 21.6406 25.8056C21.4431 25.8149 21.2456 25.8232 21.048 25.8306L20.8866 25.8356C20.4763 25.8472 20.0011 25.853 19.0648 25.8547L18.4439 25.8555H17.3545C16.7472 25.8576 16.1398 25.8513 15.5327 25.8364L15.3712 25.8314C15.1736 25.8239 14.9761 25.8153 14.7786 25.8056C13.8931 25.764 13.2889 25.6242 12.7579 25.4186C12.2025 25.21 11.6995 24.8825 11.284 24.459C10.8604 24.0431 10.5327 23.5398 10.3236 22.9842C10.118 22.454 9.9782 21.8498 9.93658 20.9634C9.92731 20.7659 9.91899 20.5684 9.91162 20.3708L9.90746 20.2094C9.89212 19.6025 9.88518 18.9954 9.88665 18.3883V16.6772C9.88433 16.0701 9.89043 15.463 9.90496 14.8561L9.91079 14.6947C9.91744 14.5074 9.92577 14.3235 9.93575 14.1021C9.97737 13.2157 10.1172 12.6123 10.3228 12.0813C10.5317 11.5253 10.8602 11.0219 11.2848 10.6065C11.7002 10.1833 12.2029 9.8558 12.7579 9.64691C13.2889 9.44133 13.8923 9.30151 14.7786 9.2599C15 9.24991 15.1848 9.24159 15.3712 9.23493L15.5327 9.22994C16.1395 9.21515 16.7466 9.20877 17.3536 9.21079L19.0648 9.20996ZM18.2092 13.3714C17.1056 13.3714 16.0471 13.8098 15.2667 14.5902C14.4863 15.3706 14.0479 16.4291 14.0479 17.5328C14.0479 18.6364 14.4863 19.6949 15.2667 20.4753C16.0471 21.2557 17.1056 21.6941 18.2092 21.6941C19.3128 21.6941 20.3713 21.2557 21.1517 20.4753C21.9321 19.6949 22.3705 18.6364 22.3705 17.5328C22.3705 16.4291 21.9321 15.3706 21.1517 14.5902C20.3713 13.8098 19.3128 13.3714 18.2092 13.3714ZM18.2092 15.0359C18.5371 15.0359 18.8618 15.1004 19.1647 15.2258C19.4677 15.3512 19.7429 15.5351 19.9748 15.7669C20.2067 15.9987 20.3907 16.274 20.5162 16.5769C20.6417 16.8798 20.7063 17.2044 20.7064 17.5323C20.7064 17.8602 20.6419 18.1849 20.5165 18.4879C20.3911 18.7908 20.2072 19.0661 19.9754 19.298C19.7436 19.5299 19.4684 19.7138 19.1655 19.8394C18.8626 19.9649 18.5379 20.0295 18.21 20.0296C17.5479 20.0296 16.9128 19.7665 16.4446 19.2983C15.9763 18.83 15.7133 18.195 15.7133 17.5328C15.7133 16.8705 15.9763 16.2355 16.4446 15.7672C16.9128 15.299 17.547 15.0359 18.2092 15.0359ZM22.5794 12.1229C22.3035 12.1229 22.0389 12.2325 21.8438 12.4276C21.6487 12.6228 21.5391 12.8874 21.5391 13.1633C21.5391 13.4392 21.6487 13.7038 21.8438 13.8989C22.0389 14.094 22.3035 14.2036 22.5794 14.2036C22.8553 14.2036 23.1199 14.094 23.315 13.8989C23.5101 13.7038 23.6197 13.4392 23.6197 13.1633C23.6197 12.8874 23.5101 12.6228 23.315 12.4276C23.1199 12.2325 22.8553 12.1229 22.5794 12.1229Z" fill="white"/>
<defs>
<linearGradient id="paint0_linear_23_4586" x1="31.9188" y1="2.41086" x2="-5.52731" y2="8.37989" gradientUnits="userSpaceOnUse">
<stop stop-color="#F07CBD"/>
<stop offset="1" stop-color="#8753A4"/>
</linearGradient>
</defs>
</svg>
