<svg width="70" height="70" viewBox="0 0 70 70" fill="none" xmlns="http://www.w3.org/2000/svg">
<rect width="70" height="70" rx="10" fill="white"/>
<path d="M13.125 25.625C12.7106 25.625 12.3132 25.7896 12.0201 26.0826C11.7271 26.3757 11.5625 26.7731 11.5625 27.1875V42.8125C11.5625 43.2269 11.7271 43.6243 12.0201 43.9174C12.3132 44.2104 12.7106 44.375 13.125 44.375C13.5394 44.375 13.9368 44.2104 14.2299 43.9174C14.5229 43.6243 14.6875 43.2269 14.6875 42.8125V27.1875C14.6875 26.7731 14.5229 26.3757 14.2299 26.0826C13.9368 25.7896 13.5394 25.625 13.125 25.625Z" fill="black"/>
<path d="M13.125 25.625C12.7106 25.625 12.3132 25.7896 12.0201 26.0826C11.7271 26.3757 11.5625 26.7731 11.5625 27.1875V42.8125C11.5625 43.2269 11.7271 43.6243 12.0201 43.9174C12.3132 44.2104 12.7106 44.375 13.125 44.375C13.5394 44.375 13.9368 44.2104 14.2299 43.9174C14.5229 43.6243 14.6875 43.2269 14.6875 42.8125V27.1875C14.6875 26.7731 14.5229 26.3757 14.2299 26.0826C13.9368 25.7896 13.5394 25.625 13.125 25.625Z" fill="#9C6CC1"/>
<path d="M19.375 17.8125C18.9606 17.8125 18.5632 17.9771 18.2701 18.2701C17.9771 18.5632 17.8125 18.9606 17.8125 19.375V50.625C17.8125 51.0394 17.9771 51.4368 18.2701 51.7299C18.5632 52.0229 18.9606 52.1875 19.375 52.1875C19.7894 52.1875 20.1868 52.0229 20.4799 51.7299C20.7729 51.4368 20.9375 51.0394 20.9375 50.625V19.375C20.9375 18.9606 20.7729 18.5632 20.4799 18.2701C20.1868 17.9771 19.7894 17.8125 19.375 17.8125Z" fill="black"/>
<path d="M19.375 17.8125C18.9606 17.8125 18.5632 17.9771 18.2701 18.2701C17.9771 18.5632 17.8125 18.9606 17.8125 19.375V50.625C17.8125 51.0394 17.9771 51.4368 18.2701 51.7299C18.5632 52.0229 18.9606 52.1875 19.375 52.1875C19.7894 52.1875 20.1868 52.0229 20.4799 51.7299C20.7729 51.4368 20.9375 51.0394 20.9375 50.625V19.375C20.9375 18.9606 20.7729 18.5632 20.4799 18.2701C20.1868 17.9771 19.7894 17.8125 19.375 17.8125Z" fill="#9C6CC1"/>
<path d="M38.125 25.625C37.7106 25.625 37.3132 25.7896 37.0201 26.0826C36.7271 26.3757 36.5625 26.7731 36.5625 27.1875V42.8125C36.5625 43.2269 36.7271 43.6243 37.0201 43.9174C37.3132 44.2104 37.7106 44.375 38.125 44.375C38.5394 44.375 38.9368 44.2104 39.2299 43.9174C39.5229 43.6243 39.6875 43.2269 39.6875 42.8125V27.1875C39.6875 26.7731 39.5229 26.3757 39.2299 26.0826C38.9368 25.7896 38.5394 25.625 38.125 25.625Z" fill="black"/>
<path d="M38.125 25.625C37.7106 25.625 37.3132 25.7896 37.0201 26.0826C36.7271 26.3757 36.5625 26.7731 36.5625 27.1875V42.8125C36.5625 43.2269 36.7271 43.6243 37.0201 43.9174C37.3132 44.2104 37.7106 44.375 38.125 44.375C38.5394 44.375 38.9368 44.2104 39.2299 43.9174C39.5229 43.6243 39.6875 43.2269 39.6875 42.8125V27.1875C39.6875 26.7731 39.5229 26.3757 39.2299 26.0826C38.9368 25.7896 38.5394 25.625 38.125 25.625Z" fill="#9C6CC1"/>
<path d="M31.875 17.8125C31.4606 17.8125 31.0632 17.9771 30.7701 18.2701C30.4771 18.5632 30.3125 18.9606 30.3125 19.375V50.625C30.3125 51.0394 30.4771 51.4368 30.7701 51.7299C31.0632 52.0229 31.4606 52.1875 31.875 52.1875C32.2894 52.1875 32.6868 52.0229 32.9799 51.7299C33.2729 51.4368 33.4375 51.0394 33.4375 50.625V19.375C33.4375 18.9606 33.2729 18.5632 32.9799 18.2701C32.6868 17.9771 32.2894 17.8125 31.875 17.8125Z" fill="black"/>
<path d="M31.875 17.8125C31.4606 17.8125 31.0632 17.9771 30.7701 18.2701C30.4771 18.5632 30.3125 18.9606 30.3125 19.375V50.625C30.3125 51.0394 30.4771 51.4368 30.7701 51.7299C31.0632 52.0229 31.4606 52.1875 31.875 52.1875C32.2894 52.1875 32.6868 52.0229 32.9799 51.7299C33.2729 51.4368 33.4375 51.0394 33.4375 50.625V19.375C33.4375 18.9606 33.2729 18.5632 32.9799 18.2701C32.6868 17.9771 32.2894 17.8125 31.875 17.8125Z" fill="#9C6CC1"/>
<path d="M25.625 11.5625C25.2106 11.5625 24.8132 11.7271 24.5201 12.0201C24.2271 12.3132 24.0625 12.7106 24.0625 13.125V56.875C24.0625 57.2894 24.2271 57.6868 24.5201 57.9799C24.8132 58.2729 25.2106 58.4375 25.625 58.4375C26.0394 58.4375 26.4368 58.2729 26.7299 57.9799C27.0229 57.6868 27.1875 57.2894 27.1875 56.875V13.125C27.1875 12.7106 27.0229 12.3132 26.7299 12.0201C26.4368 11.7271 26.0394 11.5625 25.625 11.5625Z" fill="black"/>
<path d="M25.625 11.5625C25.2106 11.5625 24.8132 11.7271 24.5201 12.0201C24.2271 12.3132 24.0625 12.7106 24.0625 13.125V56.875C24.0625 57.2894 24.2271 57.6868 24.5201 57.9799C24.8132 58.2729 25.2106 58.4375 25.625 58.4375C26.0394 58.4375 26.4368 58.2729 26.7299 57.9799C27.0229 57.6868 27.1875 57.2894 27.1875 56.875V13.125C27.1875 12.7106 27.0229 12.3132 26.7299 12.0201C26.4368 11.7271 26.0394 11.5625 25.625 11.5625Z" fill="#9C6CC1"/>
<path d="M56.875 25.625C56.4606 25.625 56.0632 25.7896 55.7701 26.0826C55.4771 26.3757 55.3125 26.7731 55.3125 27.1875V42.8125C55.3125 43.2269 55.4771 43.6243 55.7701 43.9174C56.0632 44.2104 56.4606 44.375 56.875 44.375C57.2894 44.375 57.6868 44.2104 57.9799 43.9174C58.2729 43.6243 58.4375 43.2269 58.4375 42.8125V27.1875C58.4375 26.7731 58.2729 26.3757 57.9799 26.0826C57.6868 25.7896 57.2894 25.625 56.875 25.625Z" fill="black"/>
<path d="M56.875 25.625C56.4606 25.625 56.0632 25.7896 55.7701 26.0826C55.4771 26.3757 55.3125 26.7731 55.3125 27.1875V42.8125C55.3125 43.2269 55.4771 43.6243 55.7701 43.9174C56.0632 44.2104 56.4606 44.375 56.875 44.375C57.2894 44.375 57.6868 44.2104 57.9799 43.9174C58.2729 43.6243 58.4375 43.2269 58.4375 42.8125V27.1875C58.4375 26.7731 58.2729 26.3757 57.9799 26.0826C57.6868 25.7896 57.2894 25.625 56.875 25.625Z" fill="#9C6CC1"/>
<path d="M50.625 17.8125C50.2106 17.8125 49.8132 17.9771 49.5201 18.2701C49.2271 18.5632 49.0625 18.9606 49.0625 19.375V50.625C49.0625 51.0394 49.2271 51.4368 49.5201 51.7299C49.8132 52.0229 50.2106 52.1875 50.625 52.1875C51.0394 52.1875 51.4368 52.0229 51.7299 51.7299C52.0229 51.4368 52.1875 51.0394 52.1875 50.625V19.375C52.1875 18.9606 52.0229 18.5632 51.7299 18.2701C51.4368 17.9771 51.0394 17.8125 50.625 17.8125Z" fill="black"/>
<path d="M50.625 17.8125C50.2106 17.8125 49.8132 17.9771 49.5201 18.2701C49.2271 18.5632 49.0625 18.9606 49.0625 19.375V50.625C49.0625 51.0394 49.2271 51.4368 49.5201 51.7299C49.8132 52.0229 50.2106 52.1875 50.625 52.1875C51.0394 52.1875 51.4368 52.0229 51.7299 51.7299C52.0229 51.4368 52.1875 51.0394 52.1875 50.625V19.375C52.1875 18.9606 52.0229 18.5632 51.7299 18.2701C51.4368 17.9771 51.0394 17.8125 50.625 17.8125Z" fill="#9C6CC1"/>
<path d="M44.375 11.5625C43.9606 11.5625 43.5632 11.7271 43.2701 12.0201C42.9771 12.3132 42.8125 12.7106 42.8125 13.125V56.875C42.8125 57.2894 42.9771 57.6868 43.2701 57.9799C43.5632 58.2729 43.9606 58.4375 44.375 58.4375C44.7894 58.4375 45.1868 58.2729 45.4799 57.9799C45.7729 57.6868 45.9375 57.2894 45.9375 56.875V13.125C45.9375 12.7106 45.7729 12.3132 45.4799 12.0201C45.1868 11.7271 44.7894 11.5625 44.375 11.5625Z" fill="black"/>
<path d="M44.375 11.5625C43.9606 11.5625 43.5632 11.7271 43.2701 12.0201C42.9771 12.3132 42.8125 12.7106 42.8125 13.125V56.875C42.8125 57.2894 42.9771 57.6868 43.2701 57.9799C43.5632 58.2729 43.9606 58.4375 44.375 58.4375C44.7894 58.4375 45.1868 58.2729 45.4799 57.9799C45.7729 57.6868 45.9375 57.2894 45.9375 56.875V13.125C45.9375 12.7106 45.7729 12.3132 45.4799 12.0201C45.1868 11.7271 44.7894 11.5625 44.375 11.5625Z" fill="#9C6CC1"/>
</svg>
