<svg width="36" height="35" viewBox="0 0 36 35" fill="none" xmlns="http://www.w3.org/2000/svg">
<rect x="0.617676" width="34.8235" height="34.8235" rx="17.4118" fill="#8753A4"/>
<rect x="0.617676" width="34.8235" height="34.8235" rx="17.4118" fill="url(#paint0_linear_23_4584)"/>
<path d="M13.3207 11.985C13.3205 12.4054 13.1362 12.8085 12.8085 13.1057C12.4808 13.4028 12.0364 13.5696 11.5732 13.5694C11.1099 13.5692 10.6657 13.402 10.3383 13.1045C10.0109 12.8071 9.8271 12.4038 9.82733 11.9834C9.82756 11.5629 10.0118 11.1598 10.3395 10.8627C10.6673 10.5655 11.1116 10.3987 11.5749 10.3989C12.0381 10.3991 12.4823 10.5664 12.8097 10.8638C13.1371 11.1612 13.3209 11.5645 13.3207 11.985ZM13.3731 14.7433H9.87973V24.6669H13.3731V14.7433ZM18.8927 14.7433H15.4167V24.6669H18.8577V19.4594C18.8577 16.5584 23.0236 16.2889 23.0236 19.4594V24.6669H26.4733V18.3814C26.4733 13.4909 20.3075 13.6732 18.8577 16.0749L18.8927 14.7433Z" fill="white"/>
<defs>
<linearGradient id="paint0_linear_23_4584" x1="31.8601" y1="2.41086" x2="-5.58608" y2="8.37989" gradientUnits="userSpaceOnUse">
<stop stop-color="#F07CBD"/>
<stop offset="1" stop-color="#8753A4"/>
</linearGradient>
</defs>
</svg>
